<?xml version="1.0" encoding="UTF-8" standalone="no"?>
<svg xmlns="http://www.w3.org/2000/svg" xmlns:xlink="http://www.w3.org/1999/xlink" id="tb-logo" preserveAspectRatio="xMidYMid" viewBox="0 0 474.2 77.9">
    <path fill="#ffffff" d="M142.5 72.4V39.1c0-16.8-7.6-21.9-24.4-21.9-7.4 0-15 1.2-20.7 2.6L99.9 31c4.4-1.3 9.8-2.2 15.3-2.2 11.2 0 13.8 2.2 14 11v24.6c-3.2 1.1-7.3 1.9-11.3 1.9-8.3 0-10.4-1.2-10.4-8.9 0-7.2 2.8-8.1 10.5-8.1 2.5 0 5 .1 7.3.4v-9.4c-3.4-.5-6.6-.8-10.1-.8C102 39.5 93 42 93 58c0 14.7 6 18.8 23.8 18.8 8.1 0 18.6-1.7 25.7-4.4" />
    <path fill="#ffffff" d="M101.6 66.5L95.8 57c-6.7 4.1-15.9 6.3-18.7 6.9-4 .8-8.5 1.3-11.3 1.3-7.6 0-12.1-1.5-13.8-7.6 0 0-.1-.3-.2-.9 0-.2-.1-.4-.1-.6 0-.2-.1-.5-.1-.7 0-.3-.1-.6-.1-.8-.3-2-.5-4.9-.5-9.1 0-4.1.5-7.2 1-9.3.2-1 .5-1.8.8-2.6 1.7-4.1 5-5.5 11.1-5.5 7.9 0 10.7 2.1 11.2 12.1H54.7v10.5h32.8c1-27.4-6.8-33.5-24.6-33.5-16.4 0-26.3 7-26.3 29.6 0 23.2 11.1 30 27.4 30 15.3 0 30.1-5.9 37.6-10.3" />
    <path fill="#ffffff" d="M13.7 55.1V30.8h10s4.2 0 4.2-4.2v-7.8H13.7V3.7L0 9.3v47C0 73 6.2 76.8 18.8 76.8c5.4 0 11.5-1.1 15.5-2.6l-2.4-10.9c-2.8.9-6 1.6-9.6 1.6-6.7.1-8.6-2.8-8.6-9.8m222 16.1V43.8c0-20.3-6.3-26.6-22.2-26.6-6.4 0-14 1.5-20.1 3.8-3.3-2.5-8.1-3.8-14.4-3.8-9 0-19.2 2.2-26 4.9v53.3h13.7V30.9c2.8-.8 6.4-1.3 9.4-1.3 9.1 0 11.3 3.1 11.3 15.6v30h13.7V43.8c0-5.1-.6-9.3-1.6-12.6 3.7-1.1 8.2-1.6 11-1.6 9.1 0 11.3 3.1 11.3 15.6v30h9.7c.1.1 4.2.1 4.2-4" />
    <path fill="#939393" d="M378.7 72.4V39.1c0-16.8-7.6-21.9-24.4-21.9-7.4 0-15 1.2-20.7 2.6l2.6 11.2c4.4-1.3 9.8-2.2 15.3-2.2 11.2 0 13.8 2.2 14 11v24.6c-3.2 1.1-7.3 1.9-11.3 1.9-8.3 0-10.4-1.2-10.4-8.9 0-7.2 2.8-8.1 10.5-8.1 2.5 0 5 .1 7.3.4v-9.4c-3.4-.5-6.6-.8-10.1-.8-13.2 0-22.2 2.5-22.2 18.5 0 14.7 6 18.8 23.8 18.8 8 0 18.6-1.7 25.6-4.4" />
    <path fill="#939393" d="M468.7 10.8c0-2.4-1-4.5-3.5-4.5h-7.7v13.4h3v-4.6h1.6c.9 0 2.6 3 3.4 4.6h3.6c-1.2-2.4-2.4-4.1-3.6-4.7 2 .1 3.2-1.1 3.2-4.2m-3 .1c0 1.2-.4 2.1-1.5 2.1h-3.8V8.9h3.8c1.2 0 1.5.8 1.5 2m8.5 2.2c0-9.4-3.7-12-11.5-12-7.7 0-11.4 2.6-11.4 12 0 9.3 3.6 12.1 11.4 12.1 7.9.1 11.5-2.7 11.5-12.1m-3 0c0 7.6-2.3 9.4-8.5 9.4-6 0-8.3-1.9-8.3-9.4 0-8 2.3-9.4 8.3-9.4 6.3 0 8.5 1.4 8.5 9.4" />
    <path fill="#939393" d="M297.9 46.7c0-22.8-7.8-29.5-23.4-29.5-4.2 0-7.8.8-10.7 1.9v11.3c2-.8 4.5-1.2 7.3-1.2 9.6 0 12.7 3.7 12.7 17.6 0 16.1-3.2 18.6-13 18.6-2.2 0-4.7-.2-7.1-.7v11.6c2.4.2 4.8.4 7.1.4 18.7.1 27.1-6.9 27.1-30m-38-27.9V4c0-4-4-4-4-4h-9.7v72.7c3.5 1.4 8.6 2.6 13.7 3.3V18.8zm64.6 53.9c-3.1-4.1-4.3-7.9-4.3-13.3V4c0-4-4-4-4-4h-9.7v60c0 8.2 2.1 13.5 6 17.9l12-5.2zm114.1-.7V22.9c0-4-4-4-4-4h-9.7v44.2c-3.3 1-6.5 1.4-10.2 1.4-9.6 0-12-3.1-12-15.6v-30H389v31.5c0 20.3 7.1 26.6 22.9 26.6 9-.1 19.7-2.3 26.7-5" />
</svg>
